<svg width="40" height="40" viewBox="0 0 249 40" fill="none" xmlns="http://www.w3.org/2000/svg">
<path d="M39.2001 32C45.8275 32 51.2001 26.6274 51.2001 20C51.2001 13.3726 45.8275 8 39.2001 8C32.9802 8 27.8656 12.7321 27.2601 18.7925C24.8084 17.6836 22.1597 17.0209 19.4473 16.8465C20.9595 7.29911 29.2274 0 39.2001 0C50.2458 0 59.2001 8.95431 59.2001 20C59.2001 30.6428 50.887 39.344 40.4 39.9646V40H27.2195V38.2545C27.2195 35.987 26.2844 33.7821 24.5705 32.1336C22.8517 30.4804 20.4908 29.5273 18 29.5273C15.5092 29.5273 13.1483 30.4804 11.4295 32.1336C9.71564 33.7821 8.78049 35.987 8.78049 38.2545V40H0V38.2118C0 33.5371 1.94004 29.0906 5.33341 25.8398C8.61822 22.693 13.0047 20.9102 17.5711 20.805C17.7139 20.8017 17.8569 20.8 18 20.8C18.1108 20.8 18.2215 20.801 18.3322 20.803C22.9333 20.8851 27.3586 22.6707 30.6666 25.8398C32.4991 27.5953 33.9078 29.6995 34.8159 32H39.2001Z" fill="#5233DD"></path>
<path d="M21.677 34.9245C22.6521 35.7725 23.2 36.9227 23.2 38.122V40H12.8V38.122C12.8 36.9227 13.3479 35.7725 14.323 34.9245C15.2982 34.0764 16.6209 33.6 18 33.6C19.3791 33.6 20.7018 34.0764 21.677 34.9245Z" fill="#5233DD"></path>
<path d="M43.7818 18.0363C42.3358 18.0363 41.1637 16.8642 41.1637 15.4182V14.7636C41.1637 13.6792 40.2845 12.8 39.2 12.8C38.1155 12.8 37.2364 13.6791 37.2364 14.7636V15.4182C37.2364 16.8642 36.0642 18.0363 34.6182 18.0363H33.9636C32.8792 18.0363 32 18.9155 32 20C32 21.0845 32.8792 21.9636 33.9636 21.9636H34.6182C36.0642 21.9636 37.2364 23.1358 37.2364 24.5818V25.2364C37.2364 26.3209 38.1155 27.2 39.2 27.2C40.2845 27.2 41.1637 26.3209 41.1637 25.2364V24.5818C41.1637 23.1358 42.3358 21.9636 43.7818 21.9636H44.4364C45.5209 21.9636 46.4 21.0845 46.4 20C46.4 18.9155 45.5209 18.0363 44.4364 18.0363H43.7818Z" fill="#5233DD"></path>
<path d="M11.2001 3.20004C11.2001 4.96732 12.6328 6.39999 14.4001 6.39999H15.2C16.5255 6.39999 17.6 7.47451 17.6 8.79999C17.6 10.1255 16.5255 11.2 15.2 11.2H14.4001C12.6328 11.2 11.2001 12.6327 11.2001 14.3999V15.2C11.2001 16.5255 10.1256 17.6 8.80011 17.6C7.47463 17.6 6.40011 16.5255 6.40011 15.2L6.40011 14.4C6.40011 12.6327 4.96742 11.2 3.20011 11.2H2.4C1.07452 11.2 0 10.1255 0 8.79999C0 7.47451 1.07452 6.39999 2.4 6.39999H3.20012C4.96742 6.39999 6.40011 4.96731 6.40011 3.2L6.40011 2.4C6.40011 1.07452 7.47463 0 8.80011 0C10.1256 0 11.2001 1.07452 11.2001 2.4V3.20004Z" fill="#5233DD"></path>
<path d="M239.278 13.2388C245.287 13.2388 248.187 17.4367 248.187 22.2992V31.4294H241.898V23.3836C241.898 21.1797 241.095 19.3607 238.789 19.3607C236.483 19.3607 235.714 21.1797 235.714 23.3836V31.4294H229.425V23.3836C229.425 21.1797 228.656 19.3607 226.35 19.3607C224.044 19.3607 223.241 21.1797 223.241 23.3836V31.4294H216.951V22.2992C216.951 17.4367 219.851 13.2388 225.861 13.2388C229.145 13.2388 231.521 14.5332 232.604 16.6671C233.757 14.5332 236.273 13.2388 239.278 13.2388Z" fill="#1D0F5F"></path>
<path d="M205.65 25.8323C207.677 25.8323 208.55 23.9783 208.55 21.7744V13.9385H214.839V22.544C214.839 27.6864 211.834 31.9542 205.65 31.9542C199.466 31.9542 196.461 27.6864 196.461 22.544V13.9385H202.75V21.7744C202.75 23.9783 203.624 25.8323 205.65 25.8323Z" fill="#1D0F5F"></path>
<path d="M187.213 31.9892C183.265 31.9892 180.715 30.6249 179.212 27.9662L183.754 25.4125C184.383 26.532 185.327 27.0917 186.899 27.0917C188.192 27.0917 188.786 26.6369 188.786 26.0772C188.786 23.9433 179.562 26.1122 179.562 19.3257C179.562 16.0374 182.357 13.3788 187.109 13.3788C191.266 13.3788 193.538 15.4077 194.551 17.3667L190.009 19.9554C189.624 18.9059 188.436 18.2762 187.248 18.2762C186.34 18.2762 185.851 18.661 185.851 19.1858C185.851 21.3546 195.075 19.3607 195.075 25.9373C195.075 29.6104 191.476 31.9892 187.213 31.9892Z" fill="#1D0F5F"></path>
<path d="M165.241 39.4753H158.952V22.649C158.952 17.2967 162.97 13.4137 168.56 13.4137C174.01 13.4137 178.168 17.5766 178.168 22.649C178.168 28.2461 174.465 31.9542 168.909 31.9542C167.617 31.9542 166.324 31.5694 165.241 30.9747V39.4753ZM168.56 26.0422C170.551 26.0422 171.879 24.503 171.879 22.684C171.879 20.8299 170.551 19.3257 168.56 19.3257C166.568 19.3257 165.241 20.8299 165.241 22.684C165.241 24.503 166.568 26.0422 168.56 26.0422Z" fill="#1D0F5F"></path>

</svg>
